<svg width="211" height="40" viewBox="0 0 211 40" fill="none" xmlns="http://www.w3.org/2000/svg">
<path d="M34.1422 5.85781C30.3647 2.08031 25.3422 0 20 0C14.6578 0 9.63531 2.08031 5.85781 5.85781C2.08031 9.63531 0 14.6578 0 20C0 25.3422 2.08039 30.3646 5.85781 34.1422C9.63523 37.9198 14.6578 40 20 40C25.3422 40 30.3647 37.9197 34.1422 34.1422C37.9197 30.3647 40 25.3422 40 20C40 14.6578 37.9196 9.63539 34.1422 5.85781Z" fill="#57DBCA"/>
<g clip-path="url(#clip0_124713_176)">
<path d="M20.5714 8V33.1429" stroke="white" stroke-width="2" stroke-linecap="round" stroke-linejoin="round"/>
<path d="M26.2857 12.5714H17.7143C16.6534 12.5714 15.636 12.9928 14.8859 13.743C14.1357 14.4931 13.7143 15.5105 13.7143 16.5714C13.7143 17.6323 14.1357 18.6497 14.8859 19.3998C15.636 20.15 16.6534 20.5714 17.7143 20.5714H23.4286C24.4894 20.5714 25.5069 20.9928 26.257 21.743C27.0072 22.4931 27.4286 23.5105 27.4286 24.5714C27.4286 25.6323 27.0072 26.6497 26.257 27.3998C25.5069 28.15 24.4894 28.5714 23.4286 28.5714H13.7143" stroke="white" stroke-width="2" stroke-linecap="round" stroke-linejoin="round"/>
</g>
<path d="M64.9979 14.464C66.6619 14.464 67.9819 14.968 68.9579 15.976C69.9499 16.984 70.4459 18.384 70.4459 20.176V28H66.3659V20.728C66.3659 19.864 66.1339 19.2 65.6699 18.736C65.2219 18.256 64.5979 18.016 63.7979 18.016C62.9979 18.016 62.3659 18.256 61.9019 18.736C61.4539 19.2 61.2299 19.864 61.2299 20.728V28H57.1499V20.728C57.1499 19.864 56.9179 19.2 56.4539 18.736C56.0059 18.256 55.3819 18.016 54.5819 18.016C53.7819 18.016 53.1499 18.256 52.6859 18.736C52.2379 19.2 52.0139 19.864 52.0139 20.728V28H47.9099V14.608H52.0139V16.288C52.4299 15.728 52.9739 15.288 53.6459 14.968C54.3179 14.632 55.0779 14.464 55.9259 14.464C56.9339 14.464 57.8299 14.68 58.6139 15.112C59.4139 15.544 60.0379 16.16 60.4859 16.96C60.9499 16.224 61.5819 15.624 62.3819 15.16C63.1819 14.696 64.0539 14.464 64.9979 14.464ZM85.9401 21.088C85.9401 21.472 85.9161 21.872 85.8681 22.288H76.5801C76.6441 23.12 76.9081 23.76 77.3721 24.208C77.8521 24.64 78.4361 24.856 79.1241 24.856C80.1481 24.856 80.8601 24.424 81.2601 23.56H85.6281C85.4041 24.44 84.9961 25.232 84.4041 25.936C83.8281 26.64 83.1001 27.192 82.2201 27.592C81.3401 27.992 80.3561 28.192 79.2681 28.192C77.9561 28.192 76.7881 27.912 75.7641 27.352C74.7401 26.792 73.9401 25.992 73.3641 24.952C72.7881 23.912 72.5001 22.696 72.5001 21.304C72.5001 19.912 72.7801 18.696 73.3401 17.656C73.9161 16.616 74.7161 15.816 75.7401 15.256C76.7641 14.696 77.9401 14.416 79.2681 14.416C80.5641 14.416 81.7161 14.688 82.7241 15.232C83.7321 15.776 84.5161 16.552 85.0761 17.56C85.6521 18.568 85.9401 19.744 85.9401 21.088ZM81.7401 20.008C81.7401 19.304 81.5001 18.744 81.0201 18.328C80.5401 17.912 79.9401 17.704 79.2201 17.704C78.5321 17.704 77.9481 17.904 77.4681 18.304C77.0041 18.704 76.7161 19.272 76.6041 20.008H81.7401ZM101.329 14.608V28H97.2252V26.176C96.8092 26.768 96.2412 27.248 95.5212 27.616C94.8172 27.968 94.0332 28.144 93.1692 28.144C92.1452 28.144 91.2412 27.92 90.4572 27.472C89.6732 27.008 89.0652 26.344 88.6332 25.48C88.2012 24.616 87.9852 23.6 87.9852 22.432V14.608H92.0652V21.88C92.0652 22.776 92.2972 23.472 92.7612 23.968C93.2252 24.464 93.8492 24.712 94.6332 24.712C95.4332 24.712 96.0652 24.464 96.5292 23.968C96.9932 23.472 97.2252 22.776 97.2252 21.88V14.608H101.329ZM108.547 21.28C108.547 19.904 108.803 18.696 109.315 17.656C109.843 16.616 110.555 15.816 111.451 15.256C112.347 14.696 113.347 14.416 114.451 14.416C115.331 14.416 116.131 14.6 116.851 14.968C117.587 15.336 118.163 15.832 118.579 16.456V10.24H122.683V28H118.579V26.08C118.195 26.72 117.643 27.232 116.923 27.616C116.219 28 115.395 28.192 114.451 28.192C113.347 28.192 112.347 27.912 111.451 27.352C110.555 26.776 109.843 25.968 109.315 24.928C108.803 23.872 108.547 22.656 108.547 21.28ZM118.579 21.304C118.579 20.28 118.291 19.472 117.715 18.88C117.155 18.288 116.467 17.992 115.651 17.992C114.835 17.992 114.139 18.288 113.563 18.88C113.003 19.456 112.723 20.256 112.723 21.28C112.723 22.304 113.003 23.12 113.563 23.728C114.139 24.32 114.835 24.616 115.651 24.616C116.467 24.616 117.155 24.32 117.715 23.728C118.291 23.136 118.579 22.328 118.579 21.304ZM127.716 13.216C126.996 13.216 126.404 13.008 125.94 12.592C125.492 12.16 125.268 11.632 125.268 11.008C125.268 10.368 125.492 9.84 125.94 9.424C126.404 8.992 126.996 8.776 127.716 8.776C128.42 8.776 128.996 8.992 129.444 9.424C129.908 9.84 130.14 10.368 130.14 11.008C130.14 11.632 129.908 12.16 129.444 12.592C128.996 13.008 128.42 13.216 127.716 13.216ZM129.756 14.608V28H125.652V14.608H129.756ZM140.89 14.464C142.458 14.464 143.706 14.976 144.634 16C145.578 17.008 146.05 18.4 146.05 20.176V28H141.97V20.728C141.97 19.832 141.738 19.136 141.274 18.64C140.81 18.144 140.186 17.896 139.402 17.896C138.618 17.896 137.994 18.144 137.53 18.64C137.066 19.136 136.834 19.832 136.834 20.728V28H132.73V14.608H136.834V16.384C137.25 15.792 137.81 15.328 138.514 14.992C139.218 14.64 140.01 14.464 140.89 14.464ZM157.134 14.464C158.67 14.464 159.902 14.976 160.83 16C161.758 17.008 162.222 18.4 162.222 20.176V28H158.142V20.728C158.142 19.832 157.91 19.136 157.446 18.64C156.982 18.144 156.358 17.896 155.574 17.896C154.79 17.896 154.166 18.144 153.702 18.64C153.238 19.136 153.006 19.832 153.006 20.728V28H148.902V10.24H153.006V16.408C153.422 15.816 153.99 15.344 154.71 14.992C155.43 14.64 156.238 14.464 157.134 14.464ZM177.698 21.088C177.698 21.472 177.674 21.872 177.626 22.288H168.338C168.402 23.12 168.666 23.76 169.13 24.208C169.61 24.64 170.194 24.856 170.882 24.856C171.906 24.856 172.618 24.424 173.018 23.56H177.386C177.162 24.44 176.754 25.232 176.162 25.936C175.586 26.64 174.858 27.192 173.978 27.592C173.098 27.992 172.114 28.192 171.026 28.192C169.714 28.192 168.546 27.912 167.522 27.352C166.498 26.792 165.698 25.992 165.122 24.952C164.546 23.912 164.258 22.696 164.258 21.304C164.258 19.912 164.538 18.696 165.098 17.656C165.674 16.616 166.474 15.816 167.498 15.256C168.522 14.696 169.698 14.416 171.026 14.416C172.322 14.416 173.474 14.688 174.482 15.232C175.49 15.776 176.274 16.552 176.834 17.56C177.41 18.568 177.698 19.744 177.698 21.088ZM173.498 20.008C173.498 19.304 173.258 18.744 172.778 18.328C172.298 17.912 171.698 17.704 170.978 17.704C170.29 17.704 169.706 17.904 169.226 18.304C168.762 18.704 168.474 19.272 168.362 20.008H173.498ZM181.927 13.216C181.207 13.216 180.615 13.008 180.151 12.592C179.703 12.16 179.479 11.632 179.479 11.008C179.479 10.368 179.703 9.84 180.151 9.424C180.615 8.992 181.207 8.776 181.927 8.776C182.631 8.776 183.207 8.992 183.655 9.424C184.119 9.84 184.351 10.368 184.351 11.008C184.351 11.632 184.119 12.16 183.655 12.592C183.207 13.008 182.631 13.216 181.927 13.216ZM183.967 14.608V28H179.863V14.608H183.967ZM191.045 16.84C191.525 16.104 192.125 15.528 192.845 15.112C193.565 14.68 194.365 14.464 195.245 14.464V18.808H194.117C193.093 18.808 192.325 19.032 191.813 19.48C191.301 19.912 191.045 20.68 191.045 21.784V28H186.941V14.608H191.045V16.84ZM203.303 28.192C201.991 28.192 200.807 27.912 199.751 27.352C198.711 26.792 197.887 25.992 197.279 24.952C196.687 23.912 196.391 22.696 196.391 21.304C196.391 19.928 196.695 18.72 197.303 17.68C197.911 16.624 198.743 15.816 199.799 15.256C200.855 14.696 202.039 14.416 203.351 14.416C204.663 14.416 205.847 14.696 206.903 15.256C207.959 15.816 208.791 16.624 209.399 17.68C210.007 18.72 210.311 19.928 210.311 21.304C210.311 22.68 209.999 23.896 209.375 24.952C208.767 25.992 207.927 26.792 206.855 27.352C205.799 27.912 204.615 28.192 203.303 28.192ZM203.303 24.64C204.087 24.64 204.751 24.352 205.295 23.776C205.855 23.2 206.135 22.376 206.135 21.304C206.135 20.232 205.863 19.408 205.319 18.832C204.791 18.256 204.135 17.968 203.351 17.968C202.551 17.968 201.887 18.256 201.359 18.832C200.831 19.392 200.567 20.216 200.567 21.304C200.567 22.376 200.823 23.2 201.335 23.776C201.863 24.352 202.519 24.64 203.303 24.64Z" fill="white"/>
<defs>
<clipPath id="clip0_124713_176">
<rect width="27.4286" height="27.4286" fill="white" transform="translate(6.85715 6.85718)"/>
</clipPath>
</defs>
</svg>
